<?xml version="1.0" encoding="UTF-8"?><svg id="Layer_2" xmlns="http://www.w3.org/2000/svg" viewBox="0 0 170.46 71.64"><defs><style>.cls-1{letter-spacing:0em;}.cls-2,.cls-3{fill:#1d1d1b;}.cls-3{font-family:"Acumin Variable Concept", 'Acumin Variable Concept';font-size:24.65px;font-variation-settings:'wght' 194, 'wdth' 100, 'slnt' 0;}.cls-4{letter-spacing:0em;}.cls-5{letter-spacing:-.02em;}</style></defs><g id="Layer_1-2"><g><polygon class="cls-2" points="33.71 20.16 33.71 20.08 25.29 22.16 19.69 22.3 19.72 17 24.01 16.82 24.29 20.26 26.25 16.73 25.21 14.08 24.01 15.09 18.04 15.28 18.04 0 17.01 0 15.98 0 15.98 15.28 10 15.09 8.81 14.08 7.76 16.73 9.72 20.26 10 16.82 14.3 17 14.32 22.31 8.43 22.16 0 20.08 0 40.06 3.12 48.13 9.99 56.08 14.47 58.67 14.51 68.41 17.01 71.64 19.5 68.41 19.54 58.67 24.03 56.08 30.89 48.13 34.02 40.06 34.02 20.08 33.71 20.16"/><text class="cls-3" transform="translate(43.55 43.11)"><tspan class="cls-4" x="0" y="0">C</tspan><tspan class="cls-1" x="16.73" y="0">R</tspan><tspan class="cls-5" x="32.14" y="0">U</tspan><tspan class="cls-4" x="49.02" y="0">S</tspan><tspan x="63.73" y="0">ADER</tspan></text></g></g></svg>